<?xml version="1.0" encoding="utf-8"?>
<!-- Generator: Adobe Illustrator 26.3.1, SVG Export Plug-In . SVG Version: 6.00 Build 0)  -->
<svg version="1.1" id="Layer_1" xmlns="http://www.w3.org/2000/svg" xmlns:xlink="http://www.w3.org/1999/xlink" x="0px" y="0px"
	 viewBox="0 0 304.3 19.2" style="enable-background:new 0 0 304.3 19.2;" xml:space="preserve">
<style type="text/css">
	.st0{fill:#C1A02E;}
	.st1{fill:#53575A;}
</style>
<g>
	<g>
		<path class="st0" d="M125.6,17.4c-0.3,0-0.5,0.1-0.7,0.1c-0.6,0-1.1-0.2-1.5-0.5c-0.4-0.4-0.9-0.9-1.4-1.7
			c0.8-1.3,1.2-2.8,1.2-4.5c0-0.4,0-0.8-0.1-1.2c0-0.2,0-0.2,0.2-0.3l1.5-0.4l0-0.6c-0.3,0-0.7,0-1,0c-0.4,0-0.7,0-1.1,0
			c-0.5,0-0.9,0-1.4,0c-0.4,0-0.9,0-1.3,0l0,0.6l1.5,0.3c0.2,0,0.3,0.1,0.3,0.2c0.1,0.1,0.1,0.2,0.1,0.3c0,0.3,0.1,0.7,0.1,1.2
			c0,1.3-0.3,2.4-0.8,3.4l-5.1-5.9c2.4-1.2,3.6-2.6,3.6-4.3c0-1.1-0.3-2-1.1-2.6c-0.8-0.6-1.7-0.9-2.9-0.9c-1.3,0-2.4,0.4-3.2,1.1
			c-0.9,0.7-1.3,1.7-1.3,2.9c0,0.7,0.1,1.3,0.4,1.9c0.2,0.6,0.8,1.5,1.7,2.5c-2.3,1.3-3.4,2.9-3.4,4.8c0,1.4,0.6,2.6,1.7,3.4
			c1.1,0.8,2.5,1.3,4.1,1.3c1.7,0,3.3-0.5,4.7-1.6c0.9,1.1,1.9,1.7,3.2,1.7c0.8,0,1.5-0.2,2.2-0.6L125.6,17.4z M114.5,1.8
			c0.7-0.4,1.6-0.3,2.2,0.2c0.7,0.5,0.9,1.3,0.9,2.1c0,1.6-0.8,2.7-2.1,3.6c-1-1.1-1.9-2.2-2-3.7C113.4,3.1,113.7,2.2,114.5,1.8
			 M116.2,17.1c-1.2,0-2.1-0.3-2.8-1c-0.7-0.7-1-1.6-1-2.8c0-1.5,0.6-2.7,1.7-3.7l5.2,6.3C118.3,16.7,117.3,17.1,116.2,17.1"/>
		<path class="st1" d="M7.2,10.7H3.1v4.1h4.4c1.8,0,2.9-0.7,2.9-2.1v0C10.3,11.5,9.3,10.7,7.2,10.7 M9.5,6.4c0-1.2-0.9-1.9-2.6-1.9
			H3.1v4h3.6C8.4,8.5,9.5,7.9,9.5,6.4L9.5,6.4z M0.5,2.2h6.7c1.7,0,3.1,0.5,3.9,1.3c0.7,0.7,1,1.5,1,2.5v0c0,1.8-1,2.8-2.1,3.3
			c1.8,0.6,3,1.6,3,3.6v0c0,2.7-2.2,4.1-5.5,4.1H0.5V2.2z"/>
	</g>
	<path class="st1" d="M27.4,11.2l-2.6-6l-2.6,6H27.4z M23.6,2.1H26l6.6,15.1h-2.8l-1.5-3.6h-7.1l-1.5,3.6H17L23.6,2.1z"/>
	<g>
		<path class="st1" d="M44.9,9.6c1.9,0,3.1-1,3.1-2.5v0c0-1.6-1.2-2.5-3.1-2.5H41v5H44.9z M38.4,2.2h6.7c1.9,0,3.4,0.6,4.3,1.5
			c0.8,0.8,1.2,1.9,1.2,3.2v0c0,2.5-1.5,3.9-3.6,4.5l4,5.7H48L44.3,12H41v5.2h-2.6V2.2z"/>
	</g>
	<polygon class="st1" points="56.7,2.2 59.1,2.2 67.1,12.6 67.1,2.2 69.7,2.2 69.7,17.2 67.5,17.2 59.3,6.5 59.3,17.2 56.7,17.2 	
		"/>
	<polygon class="st1" points="76.8,2.2 87.9,2.2 87.9,4.6 79.4,4.6 79.4,8.5 86.9,8.5 86.9,10.8 79.4,10.8 79.4,14.8 88,14.8 
		88,17.2 76.8,17.2 	"/>
	<g>
		<path class="st1" d="M92.9,15l1.6-1.9c1.4,1.2,2.9,1.9,4.7,1.9c1.6,0,2.7-0.8,2.7-1.9v0c0-1.1-0.6-1.6-3.4-2.3
			c-3.2-0.8-5-1.7-5-4.5v0c0-2.6,2.1-4.3,5.1-4.3c2.2,0,3.9,0.7,5.4,1.9l-1.4,2c-1.3-1-2.7-1.5-4.1-1.5c-1.5,0-2.4,0.8-2.4,1.8v0
			c0,1.2,0.7,1.7,3.6,2.4c3.2,0.8,4.8,1.9,4.8,4.4v0c0,2.8-2.2,4.5-5.4,4.5C96.9,17.4,94.7,16.6,92.9,15"/>
	</g>
	<polygon class="st1" points="130.9,2.4 133.4,2.4 141.4,12.8 141.4,2.4 144,2.4 144,17.4 141.8,17.4 133.5,6.7 133.5,17.4 
		130.9,17.4 	"/>
	<g>
		<path class="st1" d="M162,9.9L162,9.9c0-3-2.1-5.4-5.1-5.4c-3,0-5.1,2.4-5.1,5.3v0c0,2.9,2.1,5.3,5.1,5.3
			C159.9,15.2,162,12.8,162,9.9 M149.1,9.9L149.1,9.9c0-4.3,3.3-7.8,7.9-7.8s7.8,3.5,7.8,7.7v0c0,4.2-3.3,7.7-7.9,7.7
			C152.3,17.6,149.1,14.2,149.1,9.9"/>
		<path class="st1" d="M177.1,10.9h-4.2v4.1h4.4c1.8,0,2.9-0.7,2.9-2.1v0C180.2,11.7,179.2,10.9,177.1,10.9 M179.3,6.6
			c0-1.2-0.9-1.9-2.6-1.9h-3.8v4h3.6C178.2,8.7,179.3,8.1,179.3,6.6L179.3,6.6z M170.3,2.4h6.7c1.7,0,3.1,0.5,3.9,1.3
			c0.7,0.7,1,1.5,1,2.5v0c0,1.8-1,2.8-2.1,3.3c1.8,0.6,3,1.6,3,3.6v0c0,2.7-2.2,4.1-5.5,4.1h-6.9V2.4z"/>
	</g>
	<polygon class="st1" points="187.7,2.4 190.3,2.4 190.3,15 198.2,15 198.2,17.4 187.7,17.4 	"/>
	<polygon class="st1" points="203.7,2.4 214.8,2.4 214.8,4.8 206.4,4.8 206.4,8.7 213.9,8.7 213.9,11 206.4,11 206.4,15 214.9,15 
		214.9,17.4 203.7,17.4 	"/>
	<g>
		<path class="st1" d="M223,2.1h6.3c3.7,0,6.1,1.9,6.1,5.2v0c0,3.5-2.7,5.3-6.3,5.3h-2v4.2H223V2.1z M229,9.4c1.4,0,2.3-0.8,2.3-1.9
			v0c0-1.3-0.9-1.9-2.4-1.9H227v3.9H229z"/>
		<path class="st1" d="M238.8,2.1h7c2.3,0,3.8,0.6,4.8,1.6c0.9,0.9,1.3,2,1.3,3.4v0c0,2.3-1.2,3.8-3,4.5l3.5,5.1h-4.7l-3-4.5h-1.8
			v4.5h-4.1V2.1z M245.6,9.2c1.4,0,2.2-0.7,2.2-1.7v0c0-1.2-0.9-1.8-2.2-1.8h-2.7v3.6H245.6z"/>
		<path class="st1" d="M255.6,2.1h11.9v3.5h-7.8v2.3h7.1V11h-7.1v2.3h7.9v3.5h-12V2.1z"/>
		<path class="st1" d="M270.3,14.7l2.3-2.7c1.5,1.2,3.1,1.8,4.8,1.8c1.1,0,1.7-0.4,1.7-1v0c0-0.6-0.5-0.9-2.5-1.4
			c-3.1-0.7-5.6-1.6-5.6-4.6v0c0-2.7,2.2-4.7,5.7-4.7c2.5,0,4.5,0.7,6.1,2l-2,2.9c-1.3-1-2.8-1.5-4.1-1.5c-1,0-1.5,0.4-1.5,0.9v0
			c0,0.7,0.5,1,2.6,1.4c3.4,0.7,5.5,1.8,5.5,4.6v0c0,3-2.4,4.8-6,4.8C274.6,17.1,272.1,16.3,270.3,14.7z"/>
		<path class="st1" d="M285.5,14.7l2.3-2.7c1.5,1.2,3.1,1.8,4.8,1.8c1.1,0,1.7-0.4,1.7-1v0c0-0.6-0.5-0.9-2.5-1.4
			c-3.1-0.7-5.6-1.6-5.6-4.6v0c0-2.7,2.2-4.7,5.7-4.7c2.5,0,4.5,0.7,6.1,2l-2,2.9c-1.3-1-2.8-1.5-4.1-1.5c-1,0-1.5,0.4-1.5,0.9v0
			c0,0.7,0.5,1,2.6,1.4c3.4,0.7,5.5,1.8,5.5,4.6v0c0,3-2.4,4.8-6,4.8C289.8,17.1,287.3,16.3,285.5,14.7z"/>
	</g>
</g>
<g>
	<path class="st1" d="M299.6,2.3h-0.7V1.9h1.9v0.5h-0.7v1.8h-0.5V2.3z"/>
	<path class="st1" d="M301.1,1.9h0.5l0.6,0.9l0.6-0.9h0.5v2.2h-0.5V2.7l-0.6,1h0l-0.6-0.9v1.5h-0.5V1.9z"/>
</g>
</svg>
