<svg xmlns="http://www.w3.org/2000/svg" xmlns:xlink="http://www.w3.org/1999/xlink" xmlns:svgjs="http://svgjs.com/svgjs" width="512" height="512" x="0" y="0" viewBox="0 0 64 64" style="enable-background:new 0 0 512 512" xml:space="preserve" class=""><g transform="matrix(0.9,0,0,0.9,3.1999999999999993,3.1999999999999993)"><g><path d="M57 2H7a5 5 0 0 0-5 5v36a5 5 0 0 0 5 5h19v6h-6a3.009 3.009 0 0 0-3 3v4a1 1 0 0 0 1 1h28a1 1 0 0 0 1-1v-4a3.009 3.009 0 0 0-3-3h-6v-6h19a5 5 0 0 0 5-5V7a5 5 0 0 0-5-5zM44 56a1 1 0 0 1 1 1v3H19v-3a1 1 0 0 1 1-1zm-16-2v-6h8v6zm32-11a3.009 3.009 0 0 1-3 3H7a3.009 3.009 0 0 1-3-3v-3h56zm0-5H4V7a3.009 3.009 0 0 1 3-3h50a3.009 3.009 0 0 1 3 3z" data-original="#000000" class=""></path><path d="M54 42h2v2h-2zM50 42h2v2h-2zM54 8h-3V7a1 1 0 0 0-1-1H34a1 1 0 0 0-1 1v1h-2V7a1 1 0 0 0-1-1H14a1 1 0 0 0-1 1v1h-3a1 1 0 0 0-1 1v26a1 1 0 0 0 1 1h44a1 1 0 0 0 1-1V9a1 1 0 0 0-1-1zM35 8h14v22H35zm-4 2h2v21a1 1 0 0 1-2 0zM15 8h14v22H15zm38 26H11V10h2v21a1 1 0 0 0 1 1h15.18a2.988 2.988 0 0 0 5.64 0H50a1 1 0 0 0 1-1V10h2z" data-original="#000000" class=""></path><path d="M17 12h2v2h-2zM21 12h6v2h-6zM17 16h10v2H17zM17 20h10v2H17zM17 24h10v2H17zM37 16h10v2H37zM37 12h10v2H37zM37 20h10v2H37zM37 24h10v2H37z" data-original="#000000" class=""></path></g></g></svg>