<svg xmlns="http://www.w3.org/2000/svg" xmlns:xlink="http://www.w3.org/1999/xlink" xmlns:svgjs="http://svgjs.com/svgjs" width="512" height="512" x="0" y="0" viewBox="0 0 512 512" style="enable-background:new 0 0 512 512" xml:space="preserve" class=""><g transform="matrix(0.9,0,0,0.9,15.600000762939459,25.586882877349836)"><path d="m313.5 270.5 32 23h106.9v-56.1H324.3l-12.6 7.8c6.3 5.6 7.9 15 3.5 22.3zm33.9 31-4.6 8.1h124.9v-8.1zm-16.3 12.3 8.5-14.7-30.1-21.7-4.4 7.5c5.8 14.1 15.6 22.7 26 28.9zM202.4 30.6c.1-.3.3-.5.4-.7 2.4-3.8 6-6.4 10-7.5 4.2-1.1 8.8-.7 12.8 1.7l64.9 37.5c16.8-10.4 38.9-11.1 56.1-.9 17.6 10.1 27.9 29.1 27.3 49l64.9 37.5c13 7.5 10.4 27-4.1 30.9-4.1 1.1-8.5.7-12.4-1.5L363 213.4h108.6c2.2 0 4 1.8 4 4v16c0 2.2-1.8 4-4 4h-11.2v56.1h11.2c2.2 0 4 1.8 4 4v16c0 2.2-1.8 4-4 4h-32.9v12c0 2.2-1.8 4-4 4h-11.2v56.1h11.2c2.2 0 4 1.8 4 4v12h29.7c2.2 0 4 1.8 4 4v16c0 2.2-1.8 4-4 4h-11.2v56.1h11.2c2.2 0 4 1.8 4 4v16c0 2.2-1.8 4-4 4H98.1C82.6 510 70 497.4 70 481.9v-48.1c0-7.9 3.2-14.9 8.5-20.1H64.4c-15.4 0-28-12.6-28-28v-48.1c0-15.4 12.6-28 28-28h17.3c-5.2-5.2-8.5-12.2-8.5-20v-48.1c0-15.4 12.6-28.1 28.1-28.1h69.3l12.8-22.3c4.3-7.3 13-10.6 20.9-7.9l4.1-130.1c-7.6-4.7-10.3-14.6-6-22.5zm96.2 35.6 67.2 38.8c-1-15.4-9.5-29.5-23.2-37.4-13.6-7.9-30.1-8.2-44-1.4zm116 105.9L216.3 57.6l-4.1 129.8c15.2 9 30.9 17.5 46 26.5l46.1 26.6 16.5-10.3c.2-.1.4-.3.6-.4l25.3-15.6c.2-.1.4-.3.6-.4zm-205-137.8c-2.5 4.3-1 9.6 3.5 12.3l211.2 121.9c2.7 1.5 4.8 2.9 8.6 1.9 2.3-.6 4.1-2 5.4-4.1 2.5-4.2 1.1-9.6-3.5-12.2l-66.6-38.4-.6-.3L289 69.8c-.2-.1-.3-.2-.5-.3L221.7 31c-4.2-2.4-9.6-1-12.1 3.3zm100.1-3.6c.5 5.2-7.5 5.9-8 .7l-2.1-25.1c-.4-5.2 7.5-5.9 8-.7zm84.1 53.8c-4.7 2.3-8.1-5-3.4-7.2l19-9c4.8-2.2 8.2 5 3.4 7.2zm-33-40.5c-2.6 4.6-9.5.6-6.9-4l10-17.3c2.6-4.5 9.5-.6 6.9 4zM297 283.2l11.5-19.8c2.7-4.8 1-10.6-3.6-13.3l-50.7-29.3-47.9-27.7c-3.2-1.8-5.5-3.7-10.1-2.5-2.9.8-4.5 2.3-6 4.7l-13.7 23.8c-2.6 4.8-6.7 11.2-9.3 16-.1.2-.2.3-.3.5l-20.8 36c-7.1 12.4-2.8 28.4 9.5 35.5l32.6 18.8c.2.1.5.2.7.4l39.7 22.9c6.5 3.6 13.1 4.5 19.9 2.7 6.4-1.7 12.2-5.9 15.8-12zm41.2 34.4 18 8h74.5v-8zm31.9 16c7.6 6.3 9.6 14.7 1.1 29.3-6.1 10.5-13.2 26.5-28.1 15.1l-58.4-44.4h-7.6l-6.1 10.5c-4.7 7.9-12.2 13.3-20.5 15.5s-17.5 1.3-25.5-3.2c-.2-.1-.4-.2-.6-.4l-38.9-22.5H77.2v56.1h338.3v-56.1h-45.4zm-86.7-11 64.5 49c4.3 3.3 7.3 1.6 9.8-1.6 2.3-3 4.6-7.7 6.7-11.1 7.1-12.2 3.8-17.8-3.8-22.3-3.8-2.2-9.1-4.5-13.2-6.2-16-6.8-35.8-15.3-47-37zm66.8-101.2-13 8h130.4v-8zm-211 46.3 17.5-30.3h-42.5v56.1h21.7c-2.3-8.2-1.4-17.9 3.3-25.8zm22.1-38.3 4.6-8h-64.6c-11 0-20 9-20 20v48.1c0 11 9 20 20 20h44.2c-2.6-2.4-4.7-5.1-6.4-8.1H110c-2.2 0-4-1.8-4-4v-64.1c0-2.2 1.8-4 4-4h51.3zm10.4 96.2-13.9-8H64.4c-11 0-20 9-20 20v48.1c0 11 9 20 20 20h366.3v-8H73.2c-2.2 0-4-1.8-4-4v-64.1c0-2.2 1.8-4 4-4zm281.5 168.3H106.9c-2.2 0-4-1.8-4-4v-64.1c0-2.2 1.8-4 4-4h357.5v-8.1H98.1c-11 0-20.1 9-20.1 20.1v48.1c0 11 9 20 20.1 20h366.3v-8zm-4-64.1H110.9v56.1h338.3z" data-original="#000000" class=""></path></g></svg>