<svg xmlns="http://www.w3.org/2000/svg" xmlns:xlink="http://www.w3.org/1999/xlink" xmlns:svgjs="http://svgjs.com/svgjs" width="512" height="512" x="0" y="0" viewBox="0 0 68 68" style="enable-background:new 0 0 512 512" xml:space="preserve" class=""><g transform="matrix(0.9,0,0,0.9,3.3999999999999986,3.400055158138276)"><path d="M63 66.536H5c-2.206 0-4-1.794-4-4v-35.35c0-2.207 1.794-4 4-4h2.67a1 1 0 1 1 0 2H5c-1.103 0-2 .897-2 2v35.35c0 1.102.897 2 2 2h58c1.103 0 2-.898 2-2v-35.35c0-1.103-.897-2-2-2h-2.68a1 1 0 1 1 0-2H63c2.206 0 4 1.793 4 4v35.35c0 2.206-1.794 4-4 4z" data-original="#000000" class=""></path><path d="M33.998 62.402a1 1 0 0 1-1-1V21.854a1 1 0 0 1 .331-.743c7.629-6.86 19.118-6.15 27.327-3.198.397.143.662.52.662.941v39.548a1 1 0 0 1-1.308.951c-8.423-2.721-19.356-1.494-25.43 2.862a1.002 1.002 0 0 1-.582.187zm1-40.095V59.57c6.431-3.725 16.14-4.745 24.32-2.509V19.565c-7.486-2.521-17.546-3.044-24.32 2.742z" data-original="#000000" class=""></path><path d="M33.993 62.402c-.205 0-.41-.063-.583-.187-6.074-4.357-17.007-5.584-25.43-2.862a.998.998 0 0 1-1.308-.951V18.854c0-.422.266-.798.662-.941 8.21-2.951 19.7-3.663 27.328 3.198a1 1 0 0 1 .331.743v39.548a1 1 0 0 1-1 1zm-16.276-6.516c5.596 0 11.12 1.278 15.276 3.684V22.307c-6.774-5.786-16.833-5.263-24.32-2.742v37.496c2.894-.79 5.98-1.175 9.044-1.175zM38.997 42.67a1 1 0 0 1-.292-1.956c5.148-1.578 11.091-2.06 16.736-1.359a1 1 0 1 1-.246 1.985c-5.371-.667-11.02-.21-15.904 1.286a.988.988 0 0 1-.294.044z" data-original="#000000" class=""></path><path d="M28.992 31.246a.998.998 0 0 1-.54-.16c-3.825-2.46-9.492-3.043-15.547-1.603a1 1 0 1 1-.463-1.945c6.58-1.567 12.811-.886 17.092 1.867a1 1 0 0 1-.542 1.84zM38.997 48.607a1 1 0 0 1-.292-1.956c5.148-1.577 11.091-2.06 16.736-1.358a1 1 0 1 1-.246 1.984c-5.371-.666-11.02-.21-15.904 1.286a.988.988 0 0 1-.294.044zM38.996 37.181a1 1 0 0 1-.54-1.842c2.204-1.412 4.856-2.278 7.881-2.573a1 1 0 0 1 .194 1.99c-2.707.265-5.062 1.028-6.997 2.267a.992.992 0 0 1-.538.158zM28.992 37.184a.998.998 0 0 1-.54-.159c-3.827-2.462-9.493-3.046-15.547-1.603a1 1 0 0 1-.464-1.946c6.581-1.569 12.812-.887 17.093 1.867a1 1 0 0 1-.542 1.841zM38.997 54.545a1 1 0 0 1-.292-1.956c5.15-1.578 11.095-2.06 16.736-1.359a1 1 0 1 1-.246 1.985c-5.37-.668-11.017-.21-15.905 1.286a.983.983 0 0 1-.293.044zM28.992 25.308a.998.998 0 0 1-.54-.159c-3.825-2.46-9.49-3.044-15.547-1.603a1 1 0 0 1-.463-1.946c6.58-1.567 12.811-.886 17.092 1.868a1 1 0 0 1-.542 1.84zM15.708 50.526a1 1 0 0 1-.581-1.814l10.251-7.302a1 1 0 1 1 1.16 1.629l-10.25 7.302a.997.997 0 0 1-.58.185z" data-original="#000000" class=""></path><path d="M15.708 50.526a1 1 0 0 1-.581-1.814l10.251-7.302a1 1 0 1 1 1.16 1.629l-10.25 7.302a.997.997 0 0 1-.58.185z" data-original="#000000" class=""></path><path d="M25.958 50.526c-.201 0-.404-.06-.58-.185l-10.251-7.302a1 1 0 0 1 1.16-1.63l10.252 7.303a1 1 0 0 1-.581 1.814z" data-original="#000000" class=""></path><path d="M20.833 53.033a1 1 0 0 1-1-1V39.717a1 1 0 1 1 2 0v12.316a1 1 0 0 1-1 1zM46.47 34.935a1 1 0 0 1-.983-.821c-.675-3.836-1.009-6.38.54-10.367l7.754-19.96a3.652 3.652 0 0 1 4.716-2.077l.863.335a3.65 3.65 0 0 1 2.078 4.717l-7.75 19.946c-1.522 3.92-3.512 5.645-6.608 8.02a.997.997 0 0 1-.61.207zM57.18 3.463c-.659 0-1.283.399-1.535 1.05L47.891 24.47c-1.096 2.823-1.141 4.732-.709 7.635 2.284-1.85 3.543-3.293 4.642-6.123l7.75-19.945a1.648 1.648 0 0 0-.938-2.13l-.863-.333a1.626 1.626 0 0 0-.593-.112zm-2.467.687h.01z" data-original="#000000" class=""></path><path d="M59.02 11.226c-.12 0-.243-.021-.362-.067l-5.795-2.251a1 1 0 0 1 .724-1.865l5.795 2.25a1 1 0 0 1-.362 1.933z" data-original="#000000" class=""></path><path d="M45.936 14.026c-.225 0-.452-.021-.68-.064a1 1 0 1 1 .372-1.965 1.65 1.65 0 0 0 1.845-1.025l1.603-4.127a3.43 3.43 0 0 1 1.827-1.91 3.416 3.416 0 0 1 2.644-.058l.767.298a1 1 0 1 1-.725 1.863l-.766-.298a1.435 1.435 0 0 0-1.114.025 1.444 1.444 0 0 0-.77.805l-1.602 4.127a3.654 3.654 0 0 1-3.401 2.33zM52.408 28.248c-.12 0-.243-.022-.363-.068l-5.795-2.25a1 1 0 0 1 .725-1.866l5.795 2.251a1 1 0 0 1-.362 1.933z" data-original="#000000" class=""></path></g></svg>