<svg xmlns="http://www.w3.org/2000/svg" xmlns:xlink="http://www.w3.org/1999/xlink" xmlns:svgjs="http://svgjs.com/svgjs" width="512" height="512" x="0" y="0" viewBox="0 0 512 512" style="enable-background:new 0 0 512 512" xml:space="preserve" class=""><g><path d="M456 455.75c4.143 0 7.5-3.357 7.5-7.5V7.5c0-4.143-3.357-7.5-7.5-7.5H56a7.5 7.5 0 0 0-7.5 7.5v24.167a7.5 7.5 0 0 0 7.5 7.5 7.5 7.5 0 0 0 7.5-7.5V15h19v482h-19V64a7.5 7.5 0 0 0-7.5-7.5 7.5 7.5 0 0 0-7.5 7.5v440.5A7.5 7.5 0 0 0 56 512h400c4.143 0 7.5-3.357 7.5-7.5v-24.25c0-4.143-3.357-7.5-7.5-7.5s-7.5 3.357-7.5 7.5V497h-351V15h351v433.25a7.5 7.5 0 0 0 7.5 7.5z" data-original="#000000" class=""></path><path d="M327.734 144.264c-6.881-21.304-27.187-36.332-49.945-36.332-13.729 0-26.71 5.255-36.555 14.796-7.717 7.479-12.852 16.952-14.902 27.281a40.242 40.242 0 0 0-3.243-.131c-21.979 0-39.86 17.843-39.86 39.775 0 21.354 16.962 38.824 38.15 39.721v57.352c0 12.382 10.093 22.456 22.5 22.456s22.5-10.074 22.5-22.456V275.49a22.43 22.43 0 0 0 7.5 1.288c12.406 0 22.5-10.074 22.5-22.456v-24.904h17.681c24.135 0 43.77-19.592 43.77-43.674 0-18.914-12.407-35.668-30.096-41.48zm-76.355 142.463c0 4.111-3.364 7.456-7.5 7.456s-7.5-3.345-7.5-7.456v-57.309h15v57.309zm62.68-72.309h-25.181a7.499 7.499 0 0 0-7.5 7.5v32.404c0 4.111-3.364 7.456-7.5 7.456s-7.5-3.345-7.5-7.456v-32.404c0-4.143-3.357-7.5-7.5-7.5h-35.79c-13.708 0-24.86-11.109-24.86-24.765 0-13.661 11.152-24.775 24.86-24.775 2.557 0 5.077.389 7.491 1.154a7.486 7.486 0 0 0 6.605-1.029 7.504 7.504 0 0 0 3.16-5.893c.614-20.287 17.061-36.179 37.443-36.179 17.367 0 32.731 12.237 36.533 29.097a7.508 7.508 0 0 0 5.765 5.689c13.179 2.789 22.744 14.577 22.744 28.027 0 15.811-12.906 28.674-28.77 28.674zM175.089 48.646c-21.78 0-39.5 17.678-39.5 39.406s17.72 39.406 39.5 39.406 39.5-17.678 39.5-39.406c0-21.728-17.72-39.406-39.5-39.406zm0 63.813c-13.509 0-24.5-10.948-24.5-24.406s10.991-24.406 24.5-24.406 24.5 10.948 24.5 24.406-10.991 24.406-24.5 24.406zM168.051 244.317h-7.5v-7.455a7.5 7.5 0 0 0-7.5-7.5 7.5 7.5 0 0 0-7.5 7.5v7.455h-7.5c-4.142 0-7.5 3.357-7.5 7.5s3.358 7.5 7.5 7.5h7.5v7.456a7.5 7.5 0 0 0 7.5 7.5 7.5 7.5 0 0 0 7.5-7.5v-7.456h7.5c4.142 0 7.5-3.357 7.5-7.5s-3.358-7.5-7.5-7.5zM352.73 61.11h-5v-4.964a7.5 7.5 0 0 0-15 0v4.964h-5c-4.143 0-7.5 3.357-7.5 7.5s3.357 7.5 7.5 7.5h5v4.963c0 4.143 3.357 7.5 7.5 7.5s7.5-3.357 7.5-7.5V76.11h5c4.143 0 7.5-3.357 7.5-7.5s-3.357-7.5-7.5-7.5zM412.37 221.302h-7.5v-7.456c0-4.143-3.357-7.5-7.5-7.5s-7.5 3.357-7.5 7.5v7.455h-7.5a7.5 7.5 0 0 0-7.5 7.5 7.5 7.5 0 0 0 7.5 7.5h7.5v7.456a7.5 7.5 0 0 0 15 0v-7.455h7.5a7.5 7.5 0 0 0 7.5-7.5 7.5 7.5 0 0 0-7.5-7.5zM397.37 106.803c-12.406 0-22.5 10.074-22.5 22.456s10.094 22.456 22.5 22.456 22.5-10.074 22.5-22.456-10.093-22.456-22.5-22.456zm0 29.912c-4.136 0-7.5-3.345-7.5-7.456 0-4.111 3.364-7.456 7.5-7.456s7.5 3.345 7.5 7.456c0 4.111-3.364 7.456-7.5 7.456zM346.085 255.506c-12.406 0-22.5 10.074-22.5 22.456s10.094 22.455 22.5 22.455 22.5-10.073 22.5-22.455c0-12.382-10.094-22.456-22.5-22.456zm0 29.911c-4.136 0-7.5-3.345-7.5-7.455 0-4.111 3.364-7.456 7.5-7.456s7.5 3.345 7.5 7.456c0 4.11-3.364 7.455-7.5 7.455zM382.254 350.5h-224a7.5 7.5 0 0 0-7.5 7.5v34a7.5 7.5 0 0 0 7.5 7.5h224c4.143 0 7.5-3.357 7.5-7.5v-34c0-4.143-3.357-7.5-7.5-7.5zm-7.5 34h-209v-19h209v19zM382.254 411.5h-224a7.5 7.5 0 0 0-7.5 7.5v34a7.5 7.5 0 0 0 7.5 7.5h23c4.142 0 7.5-3.357 7.5-7.5s-3.358-7.5-7.5-7.5h-15.5v-19h209v19H213.379c-4.142 0-7.5 3.357-7.5 7.5s3.358 7.5 7.5 7.5h168.875c4.143 0 7.5-3.357 7.5-7.5v-34c0-4.143-3.357-7.5-7.5-7.5z" data-original="#000000" class=""></path></g></svg>