<svg xmlns="http://www.w3.org/2000/svg" xmlns:xlink="http://www.w3.org/1999/xlink" xmlns:svgjs="http://svgjs.com/svgjs" width="512" height="512" x="0" y="0" viewBox="0 0 480 479" style="enable-background:new 0 0 512 512" xml:space="preserve" class=""><g><path d="M240 16.5c-7.2-10.398-19.2-16-32-16H0v440h480V.5H272c-12.8 0-24.8 6.398-32 16zm-224 392h192c10.398 0 19.2 6.398 22.398 16H16zm448 16H249.602c3.199-9.602 12-16 22.398-16h192zm0-32H272c-12.8 0-24.8 6.398-32 16-7.2-10.398-19.2-16-32-16H16v-376h192c13.602 0 24 10.398 24 24v336h16v-336c0-13.602 10.398-24 24-24h192zm0 0" data-original="#000000" class=""></path><path d="M80 56.5h96v16H80zM272 56.5h16v16h-16zM272 104.5h16v16h-16zM304 104.5h144v16H304zM272 152.5h16v16h-16zM304 56.5h144v16H304zM304 152.5h144v16H304zM272 200.5h16v16h-16zM272 248.5h16v16h-16zM304 248.5h144v16H304zM272 296.5h16v16h-16zM304 200.5h144v16H304zM304 296.5h144v16H304zM272 344.5h16v16h-16zM304 344.5h144v16H304zM192 96.5H56c-13.602 0-24 10.398-24 24v160c0 13.602 10.398 24 24 24h113.602c2.398 0 4 .8 5.597 2.398L216 347.7V120.5c0-13.602-10.398-24-24-24zm8 212.8-13.602-13.6c-4.796-4.802-10.398-7.2-16.796-7.2H56c-4.8 0-8-3.2-8-8v-160c0-4.8 3.2-8 8-8h136c4.8 0 8 3.2 8 8zm0 0" data-original="#000000" class=""></path><path d="M152 168.5h-32v-8c0-13.602-10.398-24-24-24s-24 10.398-24 24v49.602c0 6.398 2.398 12.796 7.2 16.796L88 235.7V272.5h72v-36.8l8.8-8.802c4.802-4.796 7.2-10.398 7.2-16.796V192.5c0-13.602-10.398-24-24-24zm-48 88v-16h40v16zm56-46.398c0 2.398-.8 4-2.398 5.597L148.8 224.5H99.199l-8.8-8.8C88.8 214.101 88 212.5 88 210.101V160.5c0-4.8 3.2-8 8-8s8 3.2 8 8v40h16v-16h32c4.8 0 8 3.2 8 8zm0 0" data-original="#000000" class=""></path></g></svg>